<svg width="320" height="740" viewBox="0 0 320 740" fill="none" xmlns="http://www.w3.org/2000/svg">
<g filter="url(#filter0_d_2_133)">
<mask id="mask0_2_133" style="mask-type:alpha" maskUnits="userSpaceOnUse" x="-209" y="160" width="440" height="300">
<path d="M-209 180C-209 168.954 -200.046 160 -189 160H211C222.046 160 231 168.954 231 180V440C231 451.046 222.046 460 211 460H-189C-200.046 460 -209 451.046 -209 440V180Z" fill="#C4C4C4"/>
</mask>
<g mask="url(#mask0_2_133)">
<g filter="url(#filter1_d_2_133)">
<path d="M-209 127.742C-209 116.696 -200.046 107.742 -189 107.742H211C222.046 107.742 231 116.696 231 127.742V440C231 451.046 222.046 460 211 460H-189C-200.046 460 -209 451.046 -209 440V127.742Z" fill="#F4F4F4"/>
</g>
</g>
</g>
<defs>
<filter id="filter0_d_2_133" x="-449" y="0" width="880" height="740" filterUnits="userSpaceOnUse" color-interpolation-filters="sRGB">
<feFlood flood-opacity="0" result="BackgroundImageFix"/>
<feColorMatrix in="SourceAlpha" type="matrix" values="0 0 0 0 0 0 0 0 0 0 0 0 0 0 0 0 0 0 127 0" result="hardAlpha"/>
<feOffset dx="-20" dy="60"/>
<feGaussianBlur stdDeviation="110"/>
<feColorMatrix type="matrix" values="0 0 0 0 0 0 0 0 0 0 0 0 0 0 0 0 0 0 0.2 0"/>
<feBlend mode="normal" in2="BackgroundImageFix" result="effect1_dropShadow_2_133"/>
<feBlend mode="normal" in="SourceGraphic" in2="effect1_dropShadow_2_133" result="shape"/>
</filter>
<filter id="filter1_d_2_133" x="-449" y="-52.2579" width="880" height="792.258" filterUnits="userSpaceOnUse" color-interpolation-filters="sRGB">
<feFlood flood-opacity="0" result="BackgroundImageFix"/>
<feColorMatrix in="SourceAlpha" type="matrix" values="0 0 0 0 0 0 0 0 0 0 0 0 0 0 0 0 0 0 127 0" result="hardAlpha"/>
<feOffset dx="-20" dy="60"/>
<feGaussianBlur stdDeviation="110"/>
<feColorMatrix type="matrix" values="0 0 0 0 0 0 0 0 0 0 0 0 0 0 0 0 0 0 0.44 0"/>
<feBlend mode="normal" in2="BackgroundImageFix" result="effect1_dropShadow_2_133"/>
<feBlend mode="normal" in="SourceGraphic" in2="effect1_dropShadow_2_133" result="shape"/>
</filter>
</defs>
</svg>
